# xmcd CD database file
# Copyright (C) 1993-1998 Ti Kan
#
# Track frame offsets:
#	182
#	11885
#	25777
#	36532
#	49857
#	61252
#	73205
#	87410
#	99660
#	116062
#	126717
#	138335
#
# Disc length: 2034 seconds
#
# Revision: 1
# Processed by: cddbd v1.4b41PL1 Copyright (c) Steve Scherf et al.
# Submitted via: NotifyCDPlayer(CDDB) 1.51.3
#
DISCID=b707f00c
DTITLE=Hank Williams Jr. - Country Classics
DYEAR=1900
DGENRE=
TTITLE0=I've Got a Right to Cry
TTITLE1=Rainy Night in Georgia
TTITLE2=I'll Think of Something
TTITLE3=Raining in My Heart
TTITLE4=After All They Used to Belong to Me
TTITLE5=Long Gone Lonesome Blues
TTITLE6=Standing in the Shadows
TTITLE7=I'd Rather Be Gone
TTITLE8=Living Proof
TTITLE9=Ain't That a Shame
TTITLE10=I've Learned to Take the Hurting
TTITLE11=Angels Are Hard to Find
EXTD=
EXTT0=
EXTT1=
EXTT2=
EXTT3=
EXTT4=
EXTT5=
EXTT6=
EXTT7=
EXTT8=
EXTT9=
EXTT10=
EXTT11=
PLAYORDER=
